<?xml version="1.0" standalone="no"?>
<!DOCTYPE svg PUBLIC "-//W3C//DTD SVG 20010904//EN"
 "http://www.w3.org/TR/2001/REC-SVG-20010904/DTD/svg10.dtd">
<svg version="1.0" xmlns="http://www.w3.org/2000/svg"
 width="1280.000000pt" height="1280.000000pt" viewBox="0 0 1280.000000 1280.000000"
 preserveAspectRatio="xMidYMid meet">
<metadata>
Created by potrace 1.15, written by Peter Selinger 2001-2017
</metadata>
<g transform="translate(0.000000,1280.000000) scale(0.100000,-0.100000)"
fill="#000000" stroke="none">
<path d="M5 12788 c-3 -7 -4 -2886 -3 -6398 l3 -6385 6395 0 6395 0 0 6395 0
6395 -6393 3 c-5109 2 -6394 0 -6397 -10z m12750 -6388 l0 -6355 -6355 0
-6355 0 -3 6345 c-1 3490 0 6351 3 6358 3 10 1280 12 6357 10 l6353 -3 0
-6355z"/>
<path d="M325 12468 c-3 -7 -4 -2742 -3 -6078 l3 -6065 6075 0 6075 0 0 6075
0 6075 -6073 3 c-4853 2 -6074 0 -6077 -10z m9405 -4568 l0 -3600 455 0 455 0
0 -560 0 -560 -455 0 -455 0 0 -562 0 -563 377 -377 378 -378 -2370 1 -2370 0
-295 309 -295 308 -508 3 c-279 2 -507 2 -507 -1 0 -3 138 -143 307 -312 l308
-308 -455 0 -455 1 -389 377 -389 377 7 895 c3 492 9 1465 12 2163 l7 1267
832 0 832 0 181 438 c99 240 225 544 278 675 54 130 101 237 104 237 7 0 -4
16 649 -1026 l582 -931 -1205 -1841 c-664 -1012 -1206 -1843 -1206 -1846 0 -3
222 -6 494 -6 l493 0 1109 1636 1109 1637 3 -992 2 -991 1545 0 1545 0 0 380
0 380 -1125 0 -1125 0 0 988 0 987 -771 1250 c-424 688 -782 1269 -796 1293
l-25 42 680 0 680 0 408 -677 c225 -373 424 -703 444 -734 l35 -57 330 193
c216 125 329 197 327 206 -2 8 -258 427 -569 932 l-565 917 -1103 0 -1103 0
-12 -67 c-7 -43 -25 -90 -49 -132 -21 -36 -51 -88 -66 -116 -46 -80 -213 -245
-309 -304 -130 -79 -267 -136 -386 -159 -156 -31 -190 -34 -373 -41 l-169 -6
-301 -797 -302 -798 -552 0 -553 0 0 2225 0 2225 3320 0 3320 0 0 -3600z"/>
<path d="M4945 10755 c-216 -27 -335 -79 -487 -210 -152 -132 -250 -279 -286
-431 -49 -206 -49 -350 0 -554 36 -150 172 -360 286 -442 179 -130 292 -175
500 -198 186 -22 415 20 553 100 212 124 391 347 437 545 48 205 48 333 0 540
-34 148 -85 229 -247 388 -105 103 -153 143 -211 174 -78 42 -204 77 -315 88
-33 3 -76 7 -95 9 -19 2 -80 -2 -135 -9z"/>
</g>
</svg>
