<svg id="Layer_1" data-name="Layer 1" xmlns="http://www.w3.org/2000/svg" viewBox="0 0 512 512"><title>size</title><path d="M510.53,440.81,383.72,314.66A204.36,204.36,0,0,0,414.58,211.8C417.65,96.32,325.9,1.35,209.78,0,91.92-1.34-3.63,95.15.11,212.93,3.66,325,97.49,414,210.15,412.48A207,207,0,0,0,313,383.73L440.44,510.54a5.05,5.05,0,0,0,7.11,0l63-62.66A5,5,0,0,0,510.53,440.81ZM83.61,329.33q-3.18-3.16-6.16-6.45l21.77-61.51h87.23l22.79,63h39.63L163.51,96.51H122.94L51.87,286.27A174.26,174.26,0,0,1,207.41,32.2,175.34,175.34,0,0,1,331,83.18a173.41,173.41,0,0,1,2.56,243.55,175.6,175.6,0,0,1-250,2.6Zm26.54-99.94,20.59-59.15a346.71,346.71,0,0,0,12.33-41.76q1.56,6.22,5.7,19.56t6.47,19.56l21.38,61.79Z"/></svg>