<svg xmlns="http://www.w3.org/2000/svg" width="155.987" height="200" viewBox="0 0 155.987 200"><defs><style>.a{fill:#000023;}</style></defs><g transform="translate(-13.109 -258.718)"><path class="a" d="M26.247,258.718A13.224,13.224,0,0,0,13.11,271.852v173.72a13.235,13.235,0,0,0,13.137,13.146h129.7A13.243,13.243,0,0,0,169.1,445.572V271.852a13.232,13.232,0,0,0-13.146-13.134Zm0,10.818h129.7a2.209,2.209,0,0,1,2.328,2.316v173.72a2.209,2.209,0,0,1-2.328,2.316H26.247a2.2,2.2,0,0,1-2.319-2.316V271.852A2.2,2.2,0,0,1,26.247,269.536ZM79.731,308.5A36.892,36.892,0,1,0,99.4,376.918L125.175,402.7a8.76,8.76,0,1,0,12.389-12.389l-25.779-25.776a36.906,36.906,0,0,0-5.417-45.227l0,0A36.905,36.905,0,0,0,79.731,308.5Zm.872,14.058a22.845,22.845,0,1,1-16.489,6.688A22.848,22.848,0,0,1,80.6,322.562Z" transform="translate(0 0)"/></g></svg>