<?xml version="1.0" standalone="yes"?>
<svg width="2771" height="2083">
<path style="fill:#ffffff; stroke:none;" d="M0 0L0 929L1 929C4.69674 903.968 16.9479 878.125 24.6559 854C41.3782 801.662 58.6688 749.47 74.9745 697C124.409 537.926 176.646 379.676 227.344 221C243.856 169.32 260.925 117.809 277.025 66C283.828 44.1088 292.833 22.3323 298 0L0 0z"/>
<path style="fill:#000000; stroke:none;" d="M0 933L216 933C220.431 913.67 228.092 894.928 233.975 876C245.497 838.922 257.527 801.986 269.344 765C273.824 750.977 278.385 736.979 282.999 723C284.424 718.685 285.123 710.631 289.278 708.028C292.766 705.842 299.053 707 303 707L336 707L458 707L544 707C550.989 707 569.105 703.782 574.487 708.603C578.317 712.035 579.404 721.212 581 726C585.866 740.598 590.459 755.307 595.026 770C611.812 824.019 634.252 877.898 647 933L863 933C860.867 908.537 847.765 881.295 840 858C824.512 811.537 809.56 764.771 795.026 718C743.816 553.214 688.235 389.787 637.026 225C619.486 168.558 601.687 112.073 583 56C578.583 42.7471 574.006 29.4231 570.141 16C568.976 11.9539 567.734 2.63794 563.581 0.603516C559.124 -1.58008 550.888 0 546 0L505 0L359 0L314 0C309.945 0 301.099 -1.67139 298.086 1.60352C293.661 6.41284 292.608 16.8889 290.656 23C285.224 40.0002 279.86 57.0342 274.33 74C254.591 134.562 234.877 195.174 215.975 256C167.361 412.431 114.587 567.57 65.9745 724C51.8566 769.43 37.3766 814.87 22.3333 860C14.7857 882.643 1.94276 909.214 0 933z"/>
<path style="fill:#ffffff; stroke:none;" d="M565 0C569.934 21.3276 578.479 42.0969 584.974 63C601.075 114.809 618.144 166.32 634.656 218C685.354 376.676 737.591 534.925 787.026 694C803.431 746.792 820.539 799.44 837.67 852C846.143 877.996 859.02 905.948 863 933L647 933C644.133 913.588 635.148 893.626 629.001 875C617.179 839.183 605.024 803.196 594.424 767C590.203 752.584 585.417 738.251 580.667 724C579.282 719.846 578.185 710.652 574.487 708.028C568.379 703.694 550.41 707 543 707L458 707L334 707L301 707C297.482 707 291.546 705.895 288.51 708.028C284.795 710.638 284.023 718.916 282.667 723C277.924 737.28 273.06 751.593 268.72 766C257.625 802.831 245.363 839.359 233.656 876C227.761 894.449 218.822 913.821 216 933L0 933L0 2083L550 2083L550 1952L550 1913C550 1907.1 548.802 1899.65 550.703 1894C555.932 1878.47 571.893 1862.43 581.28 1849C604.283 1816.08 627.181 1783.07 649.974 1750C713.058 1658.48 776.942 1567.52 840.026 1476C867.938 1435.51 901.084 1395.96 925 1353L550 1353L550 1159L1176 1159L1176 1291L1176 1329L1175.07 1347L1147.72 1386L1083.72 1476L878.291 1765L820 1847L792 1888L1176 1888L1176 2083L1430 2083L1430 813L1087 813C1102.05 788.944 1126.8 768.068 1145.83 747C1187.43 700.941 1229.23 655.059 1270.83 609C1397.11 469.186 1523.89 329.815 1650.17 190C1688.76 147.27 1727.57 104.73 1766.17 62C1784.43 41.7797 1806.33 22.2505 1822 0L565 0z"/>
<path style="fill:#000000; stroke:none;" d="M1822 0C1757.31 64.6969 1698.16 136.1 1636.83 204C1528 324.488 1418.66 444.511 1309.83 565C1258.58 621.741 1207.08 678.258 1155.83 735L1107.83 788C1100.9 795.669 1091.07 803.384 1087 813L1430 813L1430 2083L1823 2083L1823 602L1823 175L1823 52L1823 17L1822 0z"/>
<path style="fill:#ffffff; stroke:none;" d="M1823 0L1823 2083L2035 2083L2035 0L1823 0z"/>
<path style="fill:#000000; stroke:none;" d="M2035 0L2035 2083L2056.17 2061L2094.17 2019L2200.17 1902L2556.17 1509L2709.29 1340L2750.09 1295L2771 1270L2428 1270L2428 0L2035 0z"/>
<path style="fill:#ffffff; stroke:none;" d="M2428 0L2428 1270L2771 1270L2771 0L2428 0M431 259L411.025 322L366.33 462L346 526L517 526C503.555 467.886 479.733 410.982 462.025 354C455.178 331.966 448.295 309.89 441 288C437.927 278.778 436.176 267.226 431 259z"/>
<path style="fill:#000000; stroke:none;" d="M550 1159L550 1353L925 1353L851.28 1459L674.28 1714L590.28 1835L564.576 1872L550.703 1893L550 1912L550 1951L550 2083L1176 2083L1176 1888L792 1888L823.576 1843L887.576 1753L1067.42 1500L1141.42 1396L1164.14 1364L1175.44 1347L1176 1328L1176 1289L1176 1159L550 1159z"/>
<path style="fill:#ffffff; stroke:none;" d="M2770 1272C2606.12 1449.92 2444.97 1630.49 2282.83 1810C2228.26 1870.42 2173.3 1930.48 2118.83 1991C2091.78 2021.06 2059.26 2049.95 2036 2083L2771 2083L2771 1508L2771 1342L2771 1294L2770 1272z"/>
</svg>
