<?xml version="1.0" encoding="UTF-8" standalone="no"?>
<!--?xml version="1.0" encoding="utf-8"?-->

<!-- Generator: Adobe Illustrator 18.0.0, SVG Export Plug-In . SVG Version: 6.00 Build 0)  -->

<svg
   version="1.1"
   id="_x32_"
   x="0px"
   y="0px"
   viewBox="0 0 512 512"
   style="width: 256px; height: 256px; opacity: 1;"
   xml:space="preserve"
   sodipodi:docname="TransferRegister.svg"
   inkscape:version="1.1.1 (3bf5ae0d25, 2021-09-20)"
   xmlns:inkscape="http://www.inkscape.org/namespaces/inkscape"
   xmlns:sodipodi="http://sodipodi.sourceforge.net/DTD/sodipodi-0.dtd"
   xmlns="http://www.w3.org/2000/svg"
   xmlns:svg="http://www.w3.org/2000/svg"><defs
   id="defs33" /><sodipodi:namedview
   id="namedview31"
   pagecolor="#ffffff"
   bordercolor="#666666"
   borderopacity="1.0"
   inkscape:pageshadow="2"
   inkscape:pageopacity="0.0"
   inkscape:pagecheckerboard="0"
   showgrid="false"
   inkscape:zoom="1.5644531"
   inkscape:cx="256"
   inkscape:cy="256"
   inkscape:window-width="1920"
   inkscape:window-height="1009"
   inkscape:window-x="-8"
   inkscape:window-y="-8"
   inkscape:window-maximized="1"
   inkscape:current-layer="_x32_" />
<style
   type="text/css"
   id="style22">
	.st0{fill:#4B4B4B;}
</style>
<g
   id="g28">
	<polygon
   class="st0"
   points="374.107,448.835 34.01,448.835 34.01,194.102 164.947,194.102 164.947,63.165 374.107,63.165    374.107,96.698 408.117,64.049 408.117,29.155 164.947,29.155 34.01,160.092 0,194.102 0,482.845 408.117,482.845 408.117,282.596    374.107,318.034  "
   style="fill: rgb(0, 0, 0);"
   id="polygon24" />
	<path
   class="st0"
   d="M508.609,118.774l-51.325-51.325c-4.521-4.522-11.852-4.522-16.372,0L224.216,275.561   c-1.344,1.344-2.336,2.998-2.889,4.815l-26.21,86.117c-2.697,8.861,5.586,17.144,14.447,14.447l88.886-27.052l210.159-218.741   C513.13,130.626,513.13,123.295,508.609,118.774z M243.986,349.323l-16.877-18.447l11.698-38.447l29.139,15.678l15.682,29.145   L243.986,349.323z M476.036,110.577L291.414,296.372l-11.728-11.728l185.804-184.631l10.547,10.546   C476.036,110.567,476.036,110.571,476.036,110.577z"
   style="fill: rgb(0, 0, 0);"
   id="path26" />
</g>
<text
   xml:space="preserve"
   style="font-style:normal;font-weight:normal;font-size:81.8041px;line-height:1.25;font-family:sans-serif;fill:#000000;fill-opacity:1;stroke:none;stroke-width:2.0451"
   x="92.69384"
   y="414.91437"
   id="text3571"
   transform="scale(0.94498023,1.0582232)"><tspan
     sodipodi:role="line"
     id="tspan3569"
     x="92.69384"
     y="414.91437"
     style="stroke-width:2.0451">振　替</tspan></text></svg>
